<svg data-name="Layer 1" xmlns="http://www.w3.org/2000/svg" width="1009.54" height="750.39" viewBox="0 0 1010 750"><defs><linearGradient id="a" x1="361.1" y1="819.7" x2="361.1" y2="219" gradientUnits="userSpaceOnUse"><stop offset="0" stop-color="gray" stop-opacity=".25"/><stop offset=".54" stop-color="gray" stop-opacity=".12"/><stop offset="1" stop-color="gray" stop-opacity=".1"/></linearGradient></defs><path d="M587 105c-65-1-127-17-186-34S284 35 221 26c-41-6-87-6-120 10-31 15-42 42-47 67-4 19-7 39 5 56 8 12 21 23 31 34 34 41 10 91-26 131-17 19-37 36-50 56s-19 43-8 63 39 35 68 46c60 21 130 27 199 31 151 7 304 4 456 1 57-2 113-3 169-9 30-4 62-10 85-23 28-18 35-47 16-69-32-37-120-46-142-86-13-21 0-46 18-66 38-43 102-81 105-130 3-34-28-68-76-84-50-17-119-15-156 13-38 29-104 40-161 38z" fill="#48659c" opacity=".1"/><g opacity=".8"><path d="M939 179s-12-5-47 12-41 14-50 12-15-4-24-17c0 0-7-38-14-44s-36 3-36 3-35 8-41-38c0 0 4-35-2-46 0 0 13 6 34-3s38 9 38 9 6 14 5 22 3 12 13 8c0 0 5-7-2-19s-12-20-10-29 8-22 26-28 43-8 55-13 14-8 14-8-7 7 10 38 6 45 6 45-9 22-49 20c0 0-39 1-18 18 0 0 14-3 34-10s35 21 39 39 19 29 19 29z" fill="#48659c"/><path d="M887 23c1 6-16 30-31 49 21-27 32-44 31-49zM856 71v1l-38 46-4 4 3-4 39-47zM814 121v1c-21 27-23 69-23 69l-4-5s5-37 27-65z" fill="#444053"/><path d="M914 164s-26-13-46-8-65-17-65-17-19-8-23-17c0 0-13-14-14-21s-13-25-22-26M910 177s-13-9-12-19M890 188s-18-7-20-33M860 195s-17-15-11-40M825 188s-12-25-2-41M914 148s-13 4-11 11M898 124s-18 5-19 31M873 118s-16 20-15 38M844 126s-16 15-14 24M835 120s-15 3-18-2M815 102s8 10 10 8M891 96s-38 2-47-9M807 51s18 38 31 43M826 33s11 35 24 46" fill="none" stroke="#444053" stroke-miterlimit="10"/><path d="M907 66s-29 13-47 0M852 25s6 26 15 32M903 37s-17 6-23 2" fill="none" stroke="#444053" stroke-miterlimit="10" stroke-width=".75"/><path d="M801 110s0 23-6 25M751 140s24 2 35-11M795 84s-6 23-23 29M736 116s17 6 32-10M775 64s-1 19-12 29M737 86s14 0 17-5" fill="none" stroke="#444053" stroke-miterlimit="10"/></g><ellipse cx="262.87" cy="734.89" rx="218" ry="15.5" fill="#48659c" opacity=".1"/><path d="M484 725l10-16 7-15 14-26c3-5 6-11 5-18l-5-17c-6-24-19-45-27-69l-7-17c-5-11-12-20-19-30a85 85 0 0 0-8-11l-8-7c-5-6-7-14-13-18v1c-4-11-19-18-27-27a157 157 0 0 1-13-17l-18-26c-3-4-6-9-7-14-2-7 0-13-2-20a25 25 0 0 0-5-10l11-2c7-2 13-7 21-9l11-3a9 9 0 0 0 4-9c-2-13 4-26 3-38l-1-11c-2-8-2-16-1-24a52 52 0 0 1 8-11c5-4 10-8 13-13s3-11 3-16c-1-4-2-8-5-11s-8-2-12-1h-1a13 13 0 0 0-11 0l-10 6a23 23 0 0 0-4 5l-4 10a100 100 0 0 1-6 20l-4 5h-2c-1 9-8 15-13 23l-5 12a113 113 0 0 1-8 12l-8 12a169 169 0 0 1-11 15l-11-1a89 89 0 0 0-18 2 51 51 0 0 1-1-7v-2a37 37 0 0 0-2-63 27 27 0 0 0 1-3v-2-1a13 13 0 0 0-1-2v-1a9 9 0 0 0-1-2l-1-1v-1h-1v-1h-2v-1h-2v-1h-3v-1h-3l-13-2-11-1c-5 1-9 5-14 7l-17 4c-6 1-12 4-16 9-2 3-3 8-4 13-7 37 0 76 2 114 0 15 0 31-9 43l25-1h7a24 24 0 0 0 9-3 15 15 0 0 0 3-2c4-4 5-9 7-13l2-5v-2h1l3 5c4 7 10 12 15 17 11 11 22 22 35 29 5 2 10 4 13 8 2 2 3 4 6 5h4c2 1 3 4 4 6s3 4 5 3a11 11 0 0 0 4 10 8 8 0 0 1 3 3 8 8 0 0 1 0 2 11 11 0 0 0 4 7c-2 3 0 8 0 12l-2 10c-2 9-1 19 1 29 1 6 2 11 5 15l4 4a36 36 0 0 1 6 9 68 68 0 0 1 6 19 36 36 0 0 0 3 10c2 5 0 11 2 16l3 6c1 3-1 7-1 10-2 8 4 15 5 23a2 2 0 0 1-1 2h-1l-2 3c0 1-1 3-2 2l-50 26-8 4-40 22a3 3 0 0 0-1 2v2l-8 2h-2a3 3 0 0 0 0-1 2 2 0 0 0-1-2 6 6 0 0 0-3 0 42 42 0 0 1-7 2l-9 1c-3 1-5 2-6 5a12 12 0 0 0-1 4 72 72 0 0 0 2 19 2 2 0 0 0 1 1h1a2 2 0 0 1 1 1c2 4 2 8 2 12l3 19c0 3 1 7 4 10 2 3 6 4 10 5 8 1 17-1 25-3 1 0 3 0 4-2a5 5 0 0 0 1-3c0-4-4-7-7-9l-5-3a2 2 0 0 1-1-3v-6h-1c1-4 3-8 6-11l7-5a18 18 0 0 0 11 3c6-8 14-13 22-19a224 224 0 0 1 22-11l18-9 26-10 17-7c14-8 24-24 22-40-2-21 3-42 2-63 0-6 0-12-2-17a9 9 0 0 1 1 1c4 3 5 8 8 12 3 3 7 5 9 9 1 3 1 7 4 8l2 2a8 8 0 0 1 2 2c3 4 6 8 6 13l1 5 1 1v4c-1 1 1 2 2 4a6 6 0 0 1 0 7c-8 11-10 25-17 36l-8 12c-7 12-11 26-14 40a22 22 0 0 0 6 7 34 34 0 0 1-7 13 32 32 0 0 0-2 3 6 6 0 0 0-3-2 79 79 0 0 0-2 17c0 4 1 9 4 11a13 13 0 0 0 4 2l7 2a7 7 0 0 0 4 0l2-1a6 6 0 0 1 3 0l6 2a39 39 0 0 1 6 2l4 3a59 59 0 0 0 9 3l10 4a37 37 0 0 0 9 2l6 1 5 1a12 12 0 0 0 8-3 7 7 0 0 0 2-1c1-3 0-6-2-8-2-5-6-9-10-11l-6-3-14-10a3 3 0 0 0-4 0c-5-2-9-5-11-9a22 22 0 0 1-2-7l7 1c4-15 8-30 15-44zm-96-426v3c-2 10-5 20-12 27a25 25 0 0 1-7 5h-1c5-12 12-24 20-35z" transform="translate(-95.23 -74.8)" fill="url(#a)"/><path d="M303 168c1-3 1-7 3-10a23 23 0 0 1 5-5c3-2 6-5 10-6s8-1 11 1 5 7 5 11c1 5 0 11-2 16-3 5-9 9-13 13a52 52 0 0 0-9 11 30 30 0 0 1-4 5 7 7 0 0 1-6 3l-5-3c-2-2-7-5-7-7l5-9a99 99 0 0 0 7-20z" fill="#fbbebe"/><path d="M303 168c1-3 1-7 3-10a23 23 0 0 1 5-5c3-2 6-5 10-6s8-1 11 1 5 7 5 11c1 5 0 11-2 16-3 5-9 9-13 13a52 52 0 0 0-9 11 30 30 0 0 1-4 5 7 7 0 0 1-6 3l-5-3c-2-2-7-5-7-7l5-9a99 99 0 0 0 7-20z" opacity=".1"/><path d="M198 268a90 90 0 0 1 24-3c14 0 28 4 42 0a72 72 0 0 0 9-5c3-1 6-2 8-5 6-7 9-17 11-26s3-19 3-29c4 2 7 3 11 3s8-3 8-7v27l2 10c1 13-6 25-3 38a9 9 0 0 1-4 9l-12 3c-7 2-13 7-21 9l-10 2-14 5h-12l-9 1c-8 0-16-4-21-10s-9-14-12-22z" fill="#48659c"/><path d="M198 268a90 90 0 0 1 24-3c14 0 28 4 42 0a72 72 0 0 0 9-5c3-1 6-2 8-5 6-7 9-17 11-26s3-19 3-29c4 2 7 3 11 3s8-3 8-7v27l2 10c1 13-6 25-3 38a9 9 0 0 1-4 9l-12 3c-7 2-13 7-21 9l-10 2-14 5h-12l-9 1c-8 0-16-4-21-10s-9-14-12-22z" opacity=".1"/><path d="M557 281a69 69 0 1 1-68 68 69 69 0 0 1 68-68m0-17a86 86 0 1 0 86 85 86 86 0 0 0-86-85z" fill="#3f3d56"/><path fill="#3f3d56" d="M545 243h20v21h-20zM600 252l18 11-11 18-17-10zM643 287l10 17-18 10-10-17zM653 394l-10 17-18-11 10-17zM490 297l-10 18-19-11 10-17zM478 383l11 17-18 11-11-17zM525 270l-17 10-11-18 17-10zM545 434h20v21h-20zM590 429l17-11 11 19-17 10zM514 446l-17-10 11-18 17 10zM449 341h24v18h-24zM666 359h-25v-18h25zM717 157a69 69 0 1 1-69 68 69 69 0 0 1 69-68m0-17a86 86 0 1 0 86 85 86 86 0 0 0-86-85z"/><path fill="#3f3d56" d="M705 120h20v21h-20zM760 128l18 11-11 18-17-10zM803 163l10 17-18 10-10-17zM813 270l-10 18-18-12 10-17zM650 173l-10 18-19-10 10-18zM638 259l11 17-18 12-11-18zM685 146l-17 10-11-18 17-10zM705 310h20v21h-20zM750 305l17-11 11 19-17 10zM674 323l-17-11 11-18 17 10zM609 217h24v18h-24zM826 235h-25v-18h25zM397 151h3a69 69 0 0 1-2 138h-3a69 69 0 0 1 2-138m0-17a86 86 0 0 0-2 172h3a86 86 0 0 0 2-172h-3z"/><path fill="#3f3d56" d="M388 114l20 1v21l-21-1zM444 124l17 11-12 18-16-11zM485 161l9 18-18 9-10-18zM493 268l-12 17-17-12 11-16zM331 166l-10 17-18-11 10-17zM317 253l10 17-19 11-10-18zM368 140l-18 9-10-18 18-10zM382 305l20 1-1 21-20-1zM427 301l18-10 10 18-18 10zM351 316l-17-11 12-18 17 11zM290 208l24 1v18l-25-1zM505 233l-24-1 1-18 24 1z"/><path d="M176 659a21 21 0 0 0-7 2c-3 2-5 5-6 9-4 8-4 17-5 26 0 7 0 14 3 21a13 13 0 0 0 4 5 13 13 0 0 0 4 3c4 1 9 1 12-2s4-7 5-12c1-6 2-12 7-16 3-3 7-4 10-8 2-4 1-10-1-15-1-4-4-13-8-15s-14 1-18 2zM340 680a33 33 0 0 1-7 13c-2 2-4 5-3 8a7 7 0 0 0 2 2c14 15 35 22 55 24a2 2 0 0 0 1 0l1-1a21 21 0 0 0 0-7c-1-5-5-8-10-11s-8-5-11-10-2-13-5-18c-3-4-8-6-13-7-2 0-6-2-7-1-2 1-2 6-3 8z" fill="#fbbebe"/><path d="M174 659a2 2 0 0 0-2-2 6 6 0 0 0-3 0 42 42 0 0 1-7 1l-8 1c-2 0-6 3-7 5a12 12 0 0 0-1 5 72 72 0 0 0 3 18 2 2 0 0 0 0 1h2a1 1 0 0 1 0 1l3 12 2 19 4 10c2 3 7 4 10 5 9 1 17-1 25-3a7 7 0 0 0 4-2 5 5 0 0 0 1-3c0-4-4-7-7-9l-5-3a2 2 0 0 1 0-1 3 3 0 0 1-1-1l1-6a17 17 0 0 0-15 9l-3 3c-2 1-4-1-4-2a11 11 0 0 1 0-6c3-14 2-29 4-44a10 10 0 0 1 1-5l3-3zM378 716l2 3v3a4 4 0 0 1-2 0 73 73 0 0 1-40-17 28 28 0 0 1-5-6l-4-5a78 78 0 0 0-2 18c0 3 0 8 3 10a13 13 0 0 0 5 2l6 2a7 7 0 0 0 4 0l3-1a6 6 0 0 1 2 0l6 2a39 39 0 0 1 6 2l5 3a59 59 0 0 0 9 3l10 4a37 37 0 0 0 9 2l6 1 5 1a12 12 0 0 0 7-3 7 7 0 0 0 2-1c2-3 1-6-1-8-3-5-6-9-10-11l-6-3c-5-2-9-7-14-10-5-2-8 5-6 9z" fill="#3f3d56"/><path d="M231 295a43 43 0 0 1-18 7 74 74 0 0 1-11 1 266 266 0 0 1-43-4c6-6 12-13 14-21a35 35 0 0 0 0-13 100 100 0 0 0-4-17 116 116 0 0 0 19-1c3 0 12-3 15-1 2 3 0 10 0 14v1a44 44 0 0 0 4 16c4 9 14 18 24 18z" fill="#fbbebe"/><path d="M203 260a37 37 0 0 1-30 5 100 100 0 0 0-4-17 116 116 0 0 0 19-1c3 0 12-3 15-1 2 3 0 10 0 14z" opacity=".1"/><circle cx="183.27" cy="227.74" r="36.6" fill="#fbbebe"/><path d="M339 413a17 17 0 0 1-9 15 33 33 0 0 1-9 3c-16 4-34 7-51 6l-11-2c-4-1-6-5-6-9a8 8 0 0 0-1-2 8 8 0 0 0-2-2 10 10 0 0 1-4-11c-2 1-5-1-5-3s-2-5-4-5l-5-1-6-5c-3-4-8-6-12-8-14-7-25-17-36-28l-15-17-3-5a154 154 0 0 1-9-20l-2-11v-1a21 21 0 0 1 4-6c4-6 8-11 15-13s13 1 19 2a49 49 0 0 0 7 1c7 0 13-1 20-3l7-2c4-1 6-6 9-6a13 13 0 0 1 5 0c8 1 15 3 22 7a36 36 0 0 1 4 3c5 3 8 8 10 14l1 20 8 14 18 25a159 159 0 0 0 13 17c9 11 27 19 28 33z" fill="#48659c"/><path d="M291 168c1-3 1-7 3-10a23 23 0 0 1 5-5c3-2 6-5 10-6s8-1 11 1 5 7 5 11c1 5 0 11-2 16-3 5-9 9-13 13a52 52 0 0 0-9 11 30 30 0 0 1-4 5 7 7 0 0 1-6 3l-5-3c-2-2-7-5-7-7l5-9a99 99 0 0 0 7-20z" fill="#fbbebe"/><path d="M419 592l-13 26-7 15-10 16c-8 13-12 29-16 44a87 87 0 0 1-31-11l-2-2a22 22 0 0 1-6-6c4-14 7-28 15-40l7-12c8-11 9-25 17-36a6 6 0 0 0 0-7l-2-4 1-3-1-2c-2-1-1-3-1-5-1-5-4-9-6-13a8 8 0 0 0-3-2l-2-1c-3-2-2-6-4-9-1-3-5-5-8-8-4-4-5-9-8-13a10 10 0 0 0-1-1l2 18c0 20-5 41-3 62 2 16-8 32-22 40l-17 7-26 10-18 8a227 227 0 0 0-21 12c-9 5-17 11-23 19-6 0-11-4-15-8s-6-10-8-16c-2-4-4-9-4-14a3 3 0 0 1 2-3l40-21 7-4 50-26c2 1 2-1 3-2l1-3h2a2 2 0 0 0 0-2c0-8-6-15-5-23l2-10-4-6c-2-5 0-11-2-15a36 36 0 0 1-3-10 67 67 0 0 0-6-20 36 36 0 0 0-5-8l-4-4c-4-4-5-10-6-15-2-10-3-20-1-29l2-10c0-5-2-10 1-13a10 10 0 0 1 5-2c7-3 14-3 22-4l33-5c4 0 8-1 11-3 5-2 8-7 10-12 6 5 8 13 12 18l8 8a86 86 0 0 1 9 10c7 10 14 19 19 30l6 17c8 23 22 45 27 68 2 6 5 11 6 17 0 7-3 13-6 18z" fill="#3f3d56"/><path d="M244 402a10 10 0 0 0-1 5c0-3 5-5 6-9 0-2 0-2-2-1l-3 5zM259 414a8 8 0 0 0-2 3 9 9 0 0 0-1 6l2-2a14 14 0 0 1 1-4l4-4-4 1zM261 290a38 38 0 0 1-8 5c-7 3-15 5-22 9a112 112 0 0 0-11 6l-21 14a23 23 0 0 0-5 3c-3 3-3 8-5 11s-7 5-11 5a34 34 0 0 1-11-2 61 61 0 0 1-7-2 32 32 0 0 1-7-4c-3-3-7-7-7-12a24 24 0 0 1 1-10 38 38 0 0 1 2-6 24 24 0 0 1 2-3c5-7 14-10 23-12l13-2a49 49 0 0 0 7 1l20-3 7-2c4-1 6-6 9-6a13 13 0 0 1 5 0c8 1 15 3 22 7a36 36 0 0 1 4 3z" opacity=".1"/><path d="M279 193c-1 8-9 15-13 23l-6 11a115 115 0 0 1-8 12l-8 12c-4 7-9 14-15 20-11 2-20 10-30 13-8 3-17 4-25 6s-18 5-23 12a31 31 0 0 0-4 9 23 23 0 0 0-1 9c0 5 4 9 7 12s9 5 14 6a34 34 0 0 0 11 2c4 0 8-1 11-4s2-8 5-11a23 23 0 0 1 5-4l21-13a112 112 0 0 1 11-7c7-3 15-5 22-9s14-9 16-17c4-25 21-46 36-66l-1-2c-2-5-6-8-10-10l-15-4z" fill="#48659c"/><path d="M202 193a14 14 0 0 0-1-8c-3-4-8-5-12-6l-14-3h-11c-5 1-9 5-13 7l-18 4c-6 1-12 4-15 8s-4 9-5 13c-7 37 1 76 2 114 1 15 0 30-9 43l25-1c6 0 13-1 18-4 4-4 6-9 8-15l3-12c1-9-4-18-3-27 2-6 6-12 12-16s10-8 15-13c7-10 8-22 7-34l-1-21c1-6 2-11 6-15 4-5 6-8 6-14z" fill="#3f3d56"/><path d="M201 185c-3-4-8-5-12-6a12 12 0 0 1 6 4 13 13 0 0 1 1 8c0 7-2 10-6 14s-5 10-6 15l1 21c1 12 0 25-7 34l-15 13c-5 4-10 10-12 17-1 8 4 17 3 26 0 4-1 9-3 13-2 5-4 10-8 14-5 4-12 4-18 4l-17 1-2 2 25-1c6 0 13-1 18-4 4-4 6-9 8-15l3-12c1-9-4-18-3-27 2-6 6-12 12-16s10-8 14-13c8-10 9-22 8-34l-1-21c1-6 2-11 6-15 4-5 6-8 6-14a14 14 0 0 0-1-8zM385 570l-45 111a22 22 0 0 1-6-7c4-14 7-28 15-40l7-12c8-11 9-25 17-36a6 6 0 0 0 0-7l-2-4 1-3-1-1c-2-2-1-4-1-6-1-5-4-9-6-13a8 8 0 0 0-3-2l-2-1c-3-2-2-6-4-9-1-3-5-5-8-8-4-4-5-9-8-13v-1l3-21z" opacity=".1"/></svg>