<svg data-name="Layer 1" xmlns="http://www.w3.org/2000/svg" width="1028.532" height="752.522" viewBox="0 0 1029 753"><ellipse cx="512.256" cy="706.435" rx="256" ry="43" fill="#dee3f3" opacity=".5"/><g opacity=".45"><path d="M451 259a11 11 0 0 0 0 1 11 11 0 0 1 0-1zM580 228zM579 227h1-1zM580 261l-1 1 1-1zM580 260v0zM457 269a11 11 0 0 1-3-2 11 11 0 0 0 3 2zM454 267a11 11 0 0 1-1-1 11 11 0 0 0 1 1zM645 478a11 11 0 0 0-1-1 11 11 0 0 1 1 1zM639 472a11 11 0 0 1 1 1 11 11 0 0 0-1-1zM641 474a11 11 0 0 1 2 2 11 11 0 0 0-2-2zM640 473a11 11 0 0 1 1 0 11 11 0 0 0-1 0zM644 477a11 11 0 0 0-1-1 11 11 0 0 1 1 1zM645 480a11 11 0 0 0 0-1 11 11 0 0 1 0 1z" fill="#48659c"/><path d="M978 419h-63a11 11 0 0 0 5-9v-29a11 11 0 0 0-12-11h-73a11 11 0 0 0 8-11v-29a11 11 0 0 0-5-9h70a11 11 0 0 0 12-11v-29a11 11 0 0 0-12-11h-78a11 11 0 0 0 8-11v-29a11 11 0 0 0-5-9h75a11 11 0 0 0 12-11v-30a11 11 0 0 0-12-11h-39a11 11 0 0 0 8-10v-29a11 11 0 0 0-11-12H759a11 11 0 0 0-11 12 11 11 0 0 0-11-12H630a11 11 0 0 0-10 7 11 11 0 0 1 0 2v29a11 11 0 0 1-1 5 11 11 0 0 0 4 6h27a11 11 0 0 1 7 3h12a11 11 0 0 0-8 10 11 11 0 0 0 0-2v30a11 11 0 0 1 0 2 4 4 0 0 1 0 1 11 11 0 0 0 0-1 11 11 0 0 0 1 1 3 3 0 0 1 0 2 11 11 0 0 0 4 6h-9v-1h-3a2 2 0 0 1-1 0 11 11 0 0 1-3 1l-65 2a11 11 0 0 0-5 9v29a11 11 0 0 0 8 11h62a11 11 0 0 1 3 1 12 12 0 0 1 3 0 11 11 0 0 0-2-1h15a11 11 0 0 0-8 11 11 11 0 0 0 0-2 11 11 0 0 1 0 2v29c0 2 0 1 0 0a11 11 0 0 0 5 9l39 1a11 11 0 0 1 4 1h10a11 11 0 0 0-4 5 11 11 0 0 1 1 5v29a11 11 0 0 1-1 5 11 11 0 0 0 7 5h-11a11 11 0 0 1-6 2h-38a11 11 0 0 0-6 9l-1 34c0 4 60 5 60 5a11 11 0 0 1 5 1 8 8 0 0 1 2 0h9a11 11 0 0 0-5 9 11 11 0 0 0 0-1 11 11 0 0 1 0 2v28a11 11 0 0 0 12 12h-18a11 11 0 0 1-5 1h-69a11 11 0 0 0-6 10v29a11 11 0 0 0 11 11h107a11 11 0 0 0 11-11 11 11 0 0 0 11 11h107a11 11 0 0 0 11-11v-29a11 11 0 0 0-11-11h86a11 11 0 0 0 12-12v-29a11 11 0 0 0-12-11zM714 221a11 11 0 0 0-5 9 11 11 0 0 0-5-9zm-13 49a11 11 0 0 0 8-11 11 11 0 0 0 8 11zm39-101a11 11 0 0 0 8-10 11 11 0 0 0 7 10zm34 313a11 11 0 0 0-11-11h22a11 11 0 0 0-11 11zm12-63a11 11 0 0 0 5-9 11 11 0 0 0 4 9zm5-38a11 11 0 0 0-8-11h15a11 11 0 0 0-7 11zm-5-62a11 11 0 0 0 5-9 11 11 0 0 0 4 9zm5-38a11 11 0 0 0-8-11h15a11 11 0 0 0-7 11zm-5-62a11 11 0 0 0 5-9 11 11 0 0 0 4 9zm5-39a11 11 0 0 0-8-10h15a11 11 0 0 0-7 10zm74 241a11 11 0 0 0-5 9 11 11 0 0 0-4-9zm-16 50a11 11 0 0 0 11-12 11 11 0 0 0 12 12z" fill="#48659c"/><path d="M645 482a11 11 0 0 0 0-2 11 11 0 0 1 0 2zM580 259v0zM451 261a11 11 0 0 0 0 1 11 11 0 0 1 0-1zM327 326a3 3 0 0 1-1-1 3 3 0 0 1 0-1 22 22 0 0 0 0 3 11 11 0 0 1 1 3 11 11 0 0 1 0-3 5 5 0 0 1 0-1z" fill="#48659c"/><path d="M479 118H372a11 11 0 0 0-11 12 11 11 0 0 0-12-12H243a11 11 0 0 0-11 12v29a11 11 0 0 0 7 10h-83a11 11 0 0 0-11 11v30a11 11 0 0 0 5 9H75a11 11 0 0 0-11 11v29a11 11 0 0 0 11 11h78a11 11 0 0 0-8 11v29a11 11 0 0 0 5 9H80a11 11 0 0 0-11 11v29a11 11 0 0 0 11 11h73a11 11 0 0 0-8 11v29a11 11 0 0 0 11 11h64a11 11 0 0 0-5 9v29a11 11 0 0 0 11 12h-86a11 11 0 0 0-11 11v29a11 11 0 0 0 11 11h107a11 11 0 0 0 11-11 11 11 0 0 0 11 11h107a11 11 0 0 0 11-11v-29a11 11 0 0 0-6-10h-23a11 11 0 0 1-5-1h-20a11 11 0 0 0 11-12l3-28a11 11 0 0 1 11-11l41-1a11 11 0 0 0 3-3 11 11 0 0 1-1-4v-29a11 11 0 0 1 1-6 11 11 0 0 0-4-5h-58a11 11 0 0 1-6-2h-15a11 11 0 0 0 8-11l-1-29v-3a11 11 0 0 0-4-6h9c6 0 67-4 72-8a9 9 0 0 1 0-2 11 11 0 0 1 0-2v-29-1a11 11 0 0 0-7-9h13a11 11 0 0 1 5-1h31a11 11 0 0 0 6-10v-29a11 11 0 0 0-5-9l-32-2c-5 0-9-2-6 0h-9a11 11 0 0 0 4-9 11 11 0 0 1 0-2v-30a11 11 0 0 0-7-8h11a11 11 0 0 1 7-3h72a11 11 0 0 0 4-8v-29a11 11 0 0 0-11-12zM197 221a11 11 0 0 0-4 9 11 11 0 0 0-5-9zm-4 38a11 11 0 0 0 7 11h-15a11 11 0 0 0 8-11zm9 62a11 11 0 0 0-4 9 11 11 0 0 0-5-9zm-12 49a11 11 0 0 0 8-11 11 11 0 0 0 7 11zm136-149a11 11 0 0 0-4 9 11 11 0 0 0-5-9zm-68 261a11 11 0 0 0-11-11h22a11 11 0 0 0-11 11zm12-63a11 11 0 0 0 4-9 11 11 0 0 0 5 9zm4-38a11 11 0 0 0-7-11h15a11 11 0 0 0-8 11zm-4-62a11 11 0 0 0 4-9 11 11 0 0 0 5 9zm4-38a11 11 0 0 0-7-11h15a11 11 0 0 0-8 11zm-4-62a11 11 0 0 0 4-9 11 11 0 0 0 5 9zm4-39a11 11 0 0 0-7-10h15a11 11 0 0 0-8 10zm40 90a11 11 0 0 0 8-11 11 11 0 0 0 7 11zm39-101a11 11 0 0 0 8-10 11 11 0 0 0 7 10zM454 222l1-1-1 1zM454 222zM453 223z" fill="#48659c"/><path d="M451 262a11 11 0 0 0 1 1 11 11 0 0 1-1-1zM452 265a11 11 0 0 0 1 1 11 11 0 0 1-1-1zM452 264a11 11 0 0 0 0 1 11 11 0 0 1 0-1zM451 227zM451 226h0zM451 228zM452 225z" fill="#48659c"/><rect x="318" y="192" width="129.054" height="51.371" rx="8.839" transform="rotate(-180 340.149 180.99)" opacity=".1"/><rect x="704" y="192" width="129.054" height="51.371" rx="8.839" transform="rotate(-180 726.058 180.99)" opacity=".1"/><rect x="876" y="242" width="129.054" height="51.371" rx="8.839" transform="rotate(-180 897.713 231.108)" opacity=".1"/><rect x="666" y="292" width="129.054" height="51.371" rx="8.839" transform="rotate(-180 687.217 281.226)" opacity=".1"/><rect x="876" y="344" width="129.054" height="51.371" rx="8.839" transform="rotate(-180 897.713 332.597)" opacity=".1"/><rect x="876" y="444" width="129.054" height="51.371" rx="8.839" transform="rotate(-180 897.713 432.833)" opacity=".1"/><path d="M852 420H739a8 8 0 0 0-7 6 5 5 0 0 1 0 2 6 6 0 0 1-1 0v36a8 8 0 0 0 8 8h113a8 8 0 0 0 8-8v-36a8 8 0 0 0-8-8z" opacity=".1"/><rect x="731" y="544" width="129.054" height="51.371" rx="8.839" transform="rotate(-180 752.37 533.07)" opacity=".1"/><rect x="360" y="242" width="129.054" height="51.371" rx="8.839" transform="rotate(-180 381.496 231.108)" opacity=".1"/><rect x="280" y="292" width="129.054" height="51.371" rx="8.839" transform="rotate(-180 301.307 281.226)" opacity=".1"/><rect x="231" y="344" width="129.054" height="51.371" rx="8.839" transform="rotate(-180 252.442 332.597)" opacity=".1"/><rect x="283" y="394" width="129.054" height="51.371" rx="8.839" transform="rotate(-180 305.066 382.715)" opacity=".1"/><rect x="231" y="444" width="129.054" height="51.371" rx="8.839" transform="rotate(-180 252.442 432.833)" opacity=".1"/><rect x="172" y="494" width="129.054" height="51.371" rx="8.839" transform="rotate(-180 194.058 483.007)" fill="#48659c"/><rect x="926" y="394" width="129.054" height="51.371" rx="8.839" transform="rotate(-180 947.575 382.66)" fill="#48659c"/><rect x="920" y="293" width="129.054" height="51.371" rx="8.839" transform="rotate(-180 942.102 281.4)" fill="#48659c"/><rect x="985" y="543" width="129.054" height="51.371" rx="8.839" transform="rotate(-180 1006.872 532.269)" fill="#48659c"/><rect x="86" y="544" width="129.054" height="51.371" rx="8.839" transform="rotate(-180 107.394 533.18)" fill="#48659c"/><rect x="103" y="443" width="129.054" height="51.371" rx="8.839" transform="rotate(-180 124.727 431.921)" fill="#48659c"/><rect x="103" y="344" width="129.054" height="51.371" rx="8.839" transform="rotate(-180 124.727 332.486)" fill="#48659c"/><rect x="108" y="242" width="129.054" height="51.371" rx="8.839" transform="rotate(-180 129.288 231.226)" fill="#48659c"/><rect x="108" y="242" width="129.054" height="51.371" rx="8.839" transform="rotate(-180 129.288 231.226)" opacity=".1"/><rect x="190" y="192" width="129.054" height="51.371" rx="8.839" transform="rotate(-180 211.39 181.053)" fill="#48659c"/><rect x="302" y="494" width="129.054" height="51.371" rx="8.839" transform="rotate(-180 323.86 482.952)" opacity=".1"/><rect x="214" y="544" width="129.054" height="51.371" rx="8.839" transform="rotate(-180 236.153 533.07)" opacity=".1"/></g><circle cx="810.335" cy="28.92" r="28.92" fill="#48659c" opacity=".5"/><path d="M252 81h-7a5 5 0 1 0 0-9h-56a5 5 0 1 0 0 9h7a5 5 0 1 0 0 10h-9a5 5 0 0 0 0 10h55a5 5 0 0 0 0-10h10a5 5 0 0 0 0-10zM807 25h-6a4 4 0 0 0 0-7h-42a4 4 0 0 0 0 7h5a4 4 0 1 0 0 8h-7a4 4 0 1 0 0 7h42a4 4 0 1 0 0-7h8a4 4 0 1 0 0-8zM384 13h-7a5 5 0 1 0 0-9h-56a5 5 0 1 0 0 9h7a5 5 0 1 0 0 10h-9a5 5 0 0 0 0 10h55a5 5 0 0 0 0-10h10a5 5 0 0 0 0-10z" fill="#dee3f3" opacity=".5"/><rect x="378" y="265" width="232.009" height="107.599" rx="12.97" fill="#48659c"/><path opacity=".1" d="M396 356h195v2H396z"/><path opacity=".3" d="M396 282h195v74H396z"/><circle cx="441.792" cy="320.085" r="26.9" opacity=".1"/><circle cx="546.028" cy="320.085" r="26.9" opacity=".1"/><path fill="#48659c" d="M474 372h40v24h-40z"/><path fill="#48659c" d="M410 389h168v134H410zM406 551h175v17H406zM435 608v77h30V584h-30v24zM526 584v101h30V584h-30zM387 419v32a45 45 0 0 0-22 10 53 53 0 0 0-14 20c-4 9-5 20-6 30a170 170 0 0 0 2 40h-34c-1-19-1-35 1-49 2-15 6-28 11-38 9-20 23-31 35-37 15-8 27-8 27-8z"/><path opacity=".3" d="M435 584h30v24h-30zM435 628h30v30h-30zM435 675h30v10h-30zM526 584h30v24h-30zM526 628h30v30h-30zM526 675h30v10h-30zM387 419v32a45 45 0 0 0-22 10l-5-34c15-8 27-8 27-8zM351 481c-4 9-5 20-6 30l-31-9c2-15 6-28 11-38z"/><path d="M601 419v32a45 45 0 0 1 22 10 53 53 0 0 1 14 20c3 9 5 20 6 30a170 170 0 0 1-2 40h34c1-19 1-35-1-49-2-15-6-28-11-38-10-20-23-31-36-37-14-8-26-8-26-8z" fill="#48659c"/><path d="M601 419v32a45 45 0 0 1 22 10l4-34c-14-8-26-8-26-8zM637 481c3 9 5 20 6 30l31-9c-2-15-6-28-11-38z" opacity=".3"/><path opacity=".1" d="M474 372h40v3h-40zM581 413v56a12 12 0 0 1-3-8v-40a12 12 0 0 1 3-8zM410 417v42a12 12 0 0 1-3 7v-56a12 12 0 0 1 3 7zM418 524h151v2H418zM415 567h74v2h-74zM496 567h74v2h-74z"/><path fill="#48659c" d="M423 165h12v100h-12zM556 165h12v100h-12z"/><circle cx="428.547" cy="165.938" r="13.122" opacity=".1"/><circle cx="428.547" cy="165.166" r="13.122" fill="#48659c"/><circle cx="562.086" cy="165.938" r="13.122" opacity=".1"/><circle cx="562.086" cy="165.166" r="13.122" fill="#48659c"/><path d="M152 470s38 76 7 117 2 153 2 153" fill="none" stroke="#fc6681" stroke-miterlimit="10" stroke-width="2"/><path d="M163 447c0 14-11 26-11 26s-10-12-10-26 10-27 10-27 11 12 11 27z" fill="#fc6681"/><path d="M171 470s-38 76-7 117-3 153-3 153" fill="none" stroke="#ffd037" stroke-miterlimit="10" stroke-width="2"/><path d="M160 447c0 14 11 26 11 26s10-12 10-26-10-27-10-27-11 12-11 27z" fill="#ffd037"/><path d="M187 470s38 76 7 117 3 153 3 153" fill="none" stroke="#fc6681" stroke-miterlimit="10" stroke-width="2"/><path d="M198 447c0 14-10 26-10 26s-11-12-11-26 11-27 11-27 10 12 10 27zM192 507c-10 11-25 12-25 12s0-16 10-27 26-11 26-11 0 16-11 26zM193 559c-10 11-25 12-25 12s0-16 10-27 26-11 26-11 0 16-11 26zM139 588c9 11 9 27 9 27s-16-2-25-13-9-27-9-27 15 2 25 13zM148 477c12 8 16 23 16 23s-16 3-28-5-16-24-16-24 16-2 28 6z" fill="#fc6681"/><path d="M207 470s-38 76-7 117-3 153-3 153" fill="none" stroke="#ffd037" stroke-miterlimit="10" stroke-width="2"/><path d="M196 447c0 14 10 26 10 26s11-12 11-26-11-27-11-27-10 12-10 27zM199 508c-11 11-11 26-11 26s16 0 26-11 11-26 11-26-16 1-26 11zM219 580c-11 11-11 26-11 26s16 0 26-11 11-26 11-26-16 1-26 11z" fill="#ffd037"/><path d="M189 564s23-36 56-37" fill="none" stroke="#ffd037" stroke-miterlimit="10" stroke-width="2"/><path d="M171 542s-23-36-55-37" fill="none" stroke="#fc6681" stroke-miterlimit="10" stroke-width="2"/><path d="M168 594s23-36 56-37" fill="none" stroke="#ffd037" stroke-miterlimit="10" stroke-width="2"/><circle cx="243.756" cy="526.935" r="6" fill="#ffd037"/><circle cx="116.256" cy="505.435" r="6" fill="#fc6681"/><path d="M185 606s-23-36-55-37" fill="none" stroke="#fc6681" stroke-miterlimit="10" stroke-width="2"/><circle cx="130.256" cy="569.435" r="6" fill="#fc6681"/><circle cx="224.256" cy="557.435" r="6" fill="#ffd037"/><path d="M313 697s-56-11-71-26-81-41-89-23-100 82-37 93 149 15 167 8 30-52 30-52z" fill="#a8a8a8"/><path d="M116 734c63 11 149 15 167 8 14-6 24-33 28-46l2 1s-11 44-30 52-104 3-167-8c-18-3-23-11-21-20 1 6 8 11 21 13z" opacity=".2"/><path d="M915 484s13 17-7 43-35 49-29 65c0 0 30-49 54-49s8-30-18-59z" fill="#fc6681"/><path d="M915 484a22 22 0 0 1 2 5c24 27 36 53 14 54-21 0-46 38-52 47a20 20 0 0 0 0 2s30-49 54-49 8-30-18-59z" opacity=".1"/><path d="M939 506l-1 11c-1 0-2-5-2-11s1-3 2-3 1-3 1 3z" fill="#ffd037"/><path d="M948 513c-5 3-10 5-11 4s4-4 10-7 3 0 3 0 3 0-2 3z" fill="#ffd037"/><path d="M844 484s-13 17 6 43 36 49 29 65c0 0-29-49-53-49s-8-30 18-59z" fill="#fc6681"/><path d="M844 484a22 22 0 0 0-3 5c-23 27-35 53-13 54 21 0 46 38 52 47a20 20 0 0 1-1 2s-29-49-53-49-8-30 18-59z" opacity=".1"/><path d="M819 506c0 6 1 11 2 11l1-11c0-6 0-3-1-3s-2-3-2 3z" fill="#ffd037"/><path d="M811 513l10 4c0-1-3-4-9-7s-3 0-3 0-4 0 2 3z" fill="#ffd037"/><path d="M824 590s37-1 48-9 58-18 60-5 56 64 14 64-98-6-109-13-13-37-13-37z" fill="#a8a8a8"/><path d="M947 636c-42 0-98-7-109-13-9-6-12-24-13-33h-1s2 30 13 37 67 14 109 13c12 0 17-4 16-10-1 3-6 6-15 6z" opacity=".2"/></svg>